<?xml version="1.0" encoding="iso-8859-1"?>
<!-- Generator: Adobe Illustrator 19.0.0, SVG Export Plug-In . SVG Version: 6.00 Build 0)  -->
<svg version="1.1" id="Capa_1" xmlns="http://www.w3.org/2000/svg" xmlns:xlink="http://www.w3.org/1999/xlink" x="0px" y="0px"
	 viewBox="0 0 512 512" style="enable-background:new 0 0 512 512;" xml:space="preserve">
<g>
	<g>
		<path d="M464.749,238.426c32.912-43.574,42.255-82.792,26.306-110.417c-1.027-1.782-2.191-3.49-3.422-5.154
			c5.797-7.865,9.27-17.543,9.27-28.041c0-26.139-21.269-47.407-47.407-47.407c-25.842,0-46.887,20.797-47.362,46.528
			c-13.182,0.616-27.342,2.471-42.173,5.47C339.34,38.592,306.718,0,269.347,0c-38.065,0-71.206,40.035-91.751,102.815
			c-42.006-8.727-78.525-8.014-104.105,3.27c-4.06-1.135-8.319-1.788-12.736-1.788c-26.139,0-47.407,21.268-47.407,47.407
			c0,20.205,12.732,37.451,30.574,44.263c0.105,0.424,0.199,0.848,0.366,1.265c8.055,19.982,22.131,41.234,40.867,62.446
			c-3.943,4.625-7.706,9.259-11.21,13.897C41.032,317.148,31.689,356.366,47.643,384c3.487,6.038,8.125,11.361,13.811,15.897
			c-0.425,2.545-0.7,5.142-0.7,7.807c0,26.139,21.269,47.407,47.407,47.407c23.097,0,42.363-16.615,46.542-38.513
			c7.846-0.918,15.88-2.176,24.097-3.81C199.424,473.49,232.016,512,269.347,512c36.561,0,68.578-36.938,89.256-95.484
			c17.188,3.285,33.397,5.007,48.184,5.007c38.347,0,67.394-11.181,80.699-34.222c18.622-32.255,1.689-79.591-40.354-127.686
			C453.489,252.579,459.402,245.506,464.749,238.426z M449.495,66.37c15.685,0,28.444,12.759,28.444,28.444
			c0,7.162-2.68,13.694-7.064,18.7c-1.198,0.497-2.317,1.232-3.265,2.235c-0.59,0.627-1.041,1.326-1.428,2.051
			c-4.693,3.417-10.449,5.458-16.687,5.458c-15.685,0-28.444-12.759-28.444-28.444C421.051,79.13,433.81,66.37,449.495,66.37z
			 M405.654,112.797c7.101,17.244,24.068,29.425,43.841,29.425c8.754,0,16.932-2.427,23.976-6.581
			c0.401,0.605,0.794,1.215,1.154,1.84c11.731,20.319,2.616,52.944-25.009,89.514c-4.693,6.214-9.87,12.428-15.402,18.619
			c-15.444-15.869-33.521-31.669-53.838-46.888c-2.882-29.428-7.949-56.802-14.82-81.245
			C379.72,114.729,393.169,113.147,405.654,112.797z M382.297,224.382c14.324,11.541,27.334,23.344,38.801,35.118
			c-11.758,11.801-24.89,23.421-39.181,34.669C382.71,281.74,383.125,269,383.125,256
			C383.125,245.274,382.84,234.727,382.297,224.382z M359.472,183.824c-11.68-7.928-23.959-15.644-36.806-23.06
			c-11.89-6.865-23.795-13.191-35.633-19.003c20.489-8.459,40.661-15.242,59.872-20.115
			C352.247,140.63,356.516,161.555,359.472,183.824z M269.347,18.963c28.441,0,54.435,33.253,71.986,84.721
			c-24.776,6.351-50.973,15.603-77.31,27.41c-23.334-10.177-46.169-18.182-67.843-23.883
			C213.733,53.738,240.261,18.963,269.347,18.963z M190.664,125.731c16.1,4.199,32.922,9.713,50.08,16.454
			c-9.48,4.785-18.929,9.875-28.286,15.278c-11.139,6.432-21.943,13.151-32.365,20.095
			C182.765,159.193,186.334,141.8,190.664,125.731z M32.31,151.704c0-15.685,12.759-28.444,28.444-28.444
			c1.935,0,3.824,0.198,5.652,0.567c1.957,1.824,4.577,2.764,7.221,2.545c9.227,4.707,15.572,14.282,15.572,25.332
			c0,15.685-12.759,28.444-28.444,28.444C45.069,180.148,32.31,167.389,32.31,151.704z M65.772,198.839
			c23.788-2.515,42.39-22.691,42.39-47.135c0-12.701-5.049-24.227-13.212-32.747c20.389-4.713,47.071-3.68,77.112,2.443
			c-5.839,21.641-10.285,45.483-13.081,70.947c-23.034,16.927-43.662,34.9-61.11,53.244
			C84.058,229.722,73.135,213.932,65.772,198.839z M157.224,300.596c-17.289-13.319-32.915-27.138-46.47-41.042
			c13.422-14.22,28.892-28.241,46.023-41.722C155.985,230.26,155.569,243,155.569,256
			C155.569,271.25,156.138,286.145,157.224,300.596z M108.162,436.148c-15.685,0-28.444-12.759-28.444-28.444
			s12.759-28.444,28.444-28.444s28.444,12.759,28.444,28.444S123.847,436.148,108.162,436.148z M154.443,397.533
			c-4.671-21.264-23.635-37.237-46.281-37.237c-16.266,0-30.639,8.242-39.181,20.763c-1.895-2.031-3.562-4.2-4.912-6.54
			c-11.731-20.32-2.616-52.945,25.009-89.514c2.86-3.786,5.929-7.571,9.105-11.352c17.626,17.971,38.409,35.704,61.537,52.398
			c3,24.596,7.552,47.6,13.419,68.469C166.76,395.76,160.521,396.771,154.443,397.533z M181.042,340.699
			c9.015,5.899,18.304,11.63,27.846,17.139c10.531,6.08,21.041,11.685,31.488,16.914c-16.585,6.382-32.891,11.59-48.594,15.575
			C187.457,374.951,183.833,358.304,181.042,340.699z M269.347,493.037c-28.399,0-54.36-33.157-71.91-84.5
			c21.398-5.448,43.686-13.088,66.295-22.715c26.395,11.731,52.082,20.645,76.16,26.624
			C322.376,461.554,297.02,493.037,269.347,493.037z M345.79,394.231c-18.566-4.591-38.24-10.995-58.447-19.134
			c12.969-6.258,25.968-13.1,38.892-20.56c11.14-6.432,21.944-13.152,32.366-20.095C355.481,355.885,351.137,376,345.79,394.231z
			 M361.629,309.323c-14.148,10.05-29.148,19.709-44.875,28.788c-17.417,10.056-35.169,19.049-52.83,26.874
			c-15.11-6.959-30.37-14.807-45.554-23.573c-14.178-8.186-27.779-16.84-40.662-25.814c-2.066-19.12-3.176-39.103-3.176-59.598
			c0-18.263,0.88-36.12,2.532-53.323c14.148-10.049,29.149-19.71,44.875-28.788c13.897-8.023,27.966-15.322,42.007-21.921
			c16.396,7.383,32.919,15.8,49.238,25.222c17.363,10.024,33.776,20.721,49.016,31.806c1.285,15.243,1.961,30.967,1.961,47.005
			C364.162,274.263,363.282,292.12,361.629,309.323z M471.06,377.819c-13.97,24.206-54.583,30.28-106.598,20.492
			c6.913-23.641,12.119-50.13,15.252-78.659c20.083-14.759,38.332-30.315,54.249-46.218
			C469.563,314.251,485.245,353.25,471.06,377.819z"/>
	</g>
</g>
<g>
	<g>
		<path d="M278.828,199.111c-26.139,0-47.407,21.268-47.407,47.407c0,26.139,21.269,47.407,47.407,47.407
			c26.139,0,47.407-21.269,47.407-47.407C326.236,220.38,304.967,199.111,278.828,199.111z M278.828,274.963
			c-15.685,0-28.444-12.759-28.444-28.444s12.759-28.444,28.444-28.444s28.444,12.759,28.444,28.444
			C307.273,262.204,294.514,274.963,278.828,274.963z"/>
	</g>
</g>
<g>
</g>
<g>
</g>
<g>
</g>
<g>
</g>
<g>
</g>
<g>
</g>
<g>
</g>
<g>
</g>
<g>
</g>
<g>
</g>
<g>
</g>
<g>
</g>
<g>
</g>
<g>
</g>
<g>
</g>
</svg>
